<svg width="109" height="47" viewBox="0 0 109 47" xmlns="http://www.w3.org/2000/svg">
  <g fill-rule="evenodd">
    <path fill="#111" d="m56 11.3838442h6.7096504v1.7297826c.8052074-1.2492323 1.8784061-2.1136268 4.1598784-2.1136268 1.6545146 0 2.459722.2881315 3.1304712.8167038l-2.3699804 6.7243933c-.9843822-.6239537-1.5212899-.8163726-2.4606472-.8163726-1.3414983 0-2.0128643.6723069-2.459722 1.5373638v13.7379117h-6.7096504zm-17 0h6.7099588v1.7297826c.804899-1.2492323 1.8780977-2.1136268 4.15957-2.1136268 1.6545146 0 2.4600304.2881315 3.1304712.8167038l-2.3699804 6.7243933c-.9843822-.6239537-1.5209816-.8163726-2.4603388-.8163726-1.3414983 0-2.0128643.6723069-2.459722 1.5373638v13.7379117h-6.7099588zm38.1430234 8.2957683h7.7142815c0-1.4390819-1.1904492-2.8781637-3.4764662-2.8781637-2.3805701 0-3.5710193 1.0211497-4.2378153 2.8781637zm12.8089838 10.9535986c-2.2380839 1.6243673-5.28545 2.3667889-8.3331443 2.3667889-7.0474855 0-11.6188629-4.4090883-11.6188629-10.99968 0-6.0804969 4.5713774-11.00032 11.6188629-11.00032 5.5234741 0 10.3811371 3.8989934 10.3811371 9.8399663 0 1.6243672-.1431428 2.5523942-.4291001 3.4807412h-14.1898523c.666796 1.9958981 2.6668557 2.8775237 4.9994926 2.8775237 2.4767647 0 4.4758394-.7891429 5.6193404-1.4851632zm-68.8087706-10.9535986h7.7141834c0-1.4390819-1.1904847-2.8781637-3.4759133-2.8781637-2.3809695 0-3.5714542 1.0211497-4.2382701 2.8781637zm12.8093661 10.9535986c-2.2381507 1.6243673-5.2856077 2.3667889-8.3333931 2.3667889-7.0476958 0-11.6192096-4.4090883-11.6192096-10.99968 0-6.0804969 4.5715138-11.00032 11.6192096-11.00032 5.5239673 0 10.3807904 3.8989934 10.3807904 9.8399663 0 1.6243672-.1424904 2.5523942-.428128 3.4807412h-14.1906041c.6664876 1.9958981 2.666607 2.8775237 5.0002985 2.8775237 2.4758536 0 4.4756447-.7891429 5.6188515-1.4851632zm62.0473973-24.6332111h6.701291v5.7492894h5.584102v6.4400033h-5.584102v6.0718128c0 1.2418896.402275 2.2995255 1.295842 2.2995255 1.429215 0 2.277503-.6440955 2.992418-1.1955884l2.010449 5.2894478c-1.340197 1.1955883-3.75292 2.3455096-6.74503 2.3455096-4.5574697 0-6.25497-3.1275576-6.25497-8.4173225zm-96 2.75977805c0-5.7933028 2.82045949-8.75977805 7.22752238-8.75977805 2.37960128 0 4.71514712.8343711 5.77247762 2.0391122l-2.2033795 5.28360464c-.5286653-.60205099-1.54194034-.83405154-2.37960131-.83405154-.88110875 0-1.80657677.83405154-1.80657677 2.68813852v2.96615568h4.18617808v6.4893044h-4.18617808v14.3677361h-6.61044242z"/>
    <path fill="#37beb0" d="m6.867 39.179.9.738c-.126.144-.243.261-.306.378-.648 1.053-1.8 2.493-3.069 3.519.513.513 1.044 1.098 1.395 1.521l-1.053.837c-.378-.504-1.134-1.341-1.719-1.944-.522-.531-1.44-1.341-1.98-1.728l.954-.765c.36.27.954.756 1.521 1.251 1.017-.81 1.863-1.854 2.286-2.592h-4.761c-.36 0-.846.045-1.035.063v-1.26c.234.036.729.081 1.035.081h4.995c.342 0 .648-.036.837-.099zm3.361 3.654v-1.413c.324.027.981.054 1.449.054h4.833c.414 0 .819-.036 1.053-.054v1.413c-.216-.009-.675-.045-1.053-.045h-4.833c-.513 0-1.116.018-1.449.045zm12.8740001-2.907h3.879c.234 0 .639-.009.936-.063v1.233c-.333-.036-.729-.036-.936-.036h-1.26c-.162 2.394-1.098 3.996-2.727 5.022l-1.215-.81c.324-.135.648-.324.855-.504.945-.72 1.692-1.827 1.836-3.708h-1.899c-.36.657-.909 1.422-1.449 1.89l-1.134-.684c.639-.477 1.215-1.287 1.557-1.854.252-.414.414-.882.522-1.224.099-.279.171-.621.189-.927l1.386.279c-.099.225-.216.54-.288.729s-.153.423-.252.657zm13.891-.648.918.567c-.099.171-.216.414-.297.639-.234.693-.648 1.602-1.242 2.466.333.207.639.414.864.576l-.819 1.053c-.216-.189-.504-.405-.837-.639-.801.873-1.863 1.683-3.321 2.241l-1.044-.909c1.593-.486 2.61-1.251 3.357-2.016-.612-.396-1.224-.765-1.683-1.026l.765-.855c.477.243 1.089.585 1.692.945.441-.639.801-1.377.936-1.917h-2.583c-.63.837-1.467 1.701-2.376 2.322l-.972-.747c1.584-.972 2.421-2.205 2.871-2.988.135-.216.324-.63.405-.945l1.305.405c-.216.315-.45.729-.558.918l-.009.009h1.845c.279 0 .585-.036.783-.099zm3.8650001 3.555v-1.413c.324.027.981.054 1.449.054h4.833c.414 0 .819-.036 1.053-.054v1.413c-.216-.009-.675-.045-1.053-.045h-4.833c-.513 0-1.116.018-1.449.045zm11.839 1.134c.369 0 .729-.558 1.089-1.764.207-.657.369-1.422.477-2.16-1.476.306-2.259 1.602-2.259 2.583 0 .9.36 1.341.693 1.341zm2.448 1.989-.666-1.053c.342-.045.594-.09.828-.144 1.143-.27 2.025-1.089 2.025-2.385 0-1.233-.666-2.151-1.863-2.358-.126.756-.279 1.584-.531 2.421-.531 1.8-1.305 2.898-2.277 2.898-.981 0-1.818-1.089-1.818-2.592 0-2.052 1.791-3.816 4.104-3.816 2.205 0 3.6 1.539 3.6 3.483 0 1.872-1.152 3.204-3.402 3.546zm9.301-1.8c0-.081 0-.189-.009-.306-.234-.036-.486-.063-.738-.063-.693 0-1.107.234-1.107.612 0 .441.45.603 1.071.603.576 0 .783-.261.783-.846zm3.852.414-.684 1.062c-.504-.504-1.179-1.035-1.971-1.395.009.117.009.216.009.306 0 .783-.405 1.539-1.899 1.539-1.269 0-2.313-.414-2.313-1.629 0-.927.792-1.665 2.43-1.665.18 0 .36.009.531.027-.027-.693-.063-1.458-.063-1.926 0-.54-.009-1.071-.018-1.449-.009-.441-.036-.819-.09-1.044h1.341c-.036.261-.063.693-.081 1.044v.648c.702-.018 1.746-.054 2.484-.135l.045 1.062c-.747.072-1.809.108-2.529.126.018.54.054 1.242.099 1.899 1.134.342 2.097.954 2.709 1.53zm4.2250001-6.237 1.224.054c-.126.441-.306 1.35-.36 1.845.423-.684 1.197-1.44 2.205-1.44 1.242 0 2.205 1.215 2.205 3.177 0 2.52-1.548 3.726-3.906 4.158l-.675-1.035c1.98-.306 3.366-.954 3.366-3.114 0-1.377-.459-2.142-1.197-2.142-1.053 0-1.971 1.584-2.016 2.754-.009.243-.009.531.045.945l-1.107.072c-.045-.342-.108-.891-.108-1.485 0-.828.117-1.935.252-2.853.045-.324.063-.684.072-.936zm14.449 1.233.558 1.044c-.27.162-.549.315-.882.477-.549.288-1.386.666-2.205 1.197-.738.486-1.233.999-1.233 1.62 0 .639.612.981 1.854.981.909 0 2.115-.144 2.907-.324l-.018 1.278c-.756.135-1.701.225-2.862.225-1.773 0-3.114-.495-3.114-2.034 0-.981.621-1.71 1.476-2.34-.405-.756-.837-1.71-1.242-2.655l1.125-.459c.342.927.756 1.782 1.116 2.466.657-.387 1.287-.702 1.701-.945.333-.189.585-.342.819-.531zm-.018-.864.711-.288c.225.324.549.9.72 1.233l-.729.306c-.18-.369-.459-.9-.702-1.251zm1.062-.405.72-.297c.234.342.567.918.72 1.233l-.711.306c-.189-.378-.477-.9-.729-1.242zm4.594 1.953v-1.188c.666.072 1.494.108 2.43.108.882 0 1.899-.054 2.583-.126v1.197c-.621.045-1.728.108-2.574.108-.936 0-1.71-.045-2.439-.099zm-.414 2.484 1.17.108c-.081.324-.153.603-.153.9 0 .567.54.981 1.827.981 1.206 0 2.34-.135 3.132-.351l.009 1.251c-.774.189-1.845.306-3.096.306-2.043 0-3.069-.684-3.069-1.908 0-.522.108-.954.18-1.287zm10.7139997-3.924c.153.018.387.045.693.045.468 0 2.241-.027 2.835-.063.198-.018.468-.054.639-.099l.594.783c-.171.09-.369.216-.495.297-.513.369-1.368.99-2.043 1.575.288-.09.657-.126.9-.126 1.557 0 2.646.909 2.646 2.151 0 1.728-1.44 2.907-4.671 2.646l-.324-1.161c2.394.315 3.771-.279 3.771-1.485 0-.702-.657-1.197-1.665-1.197-1.548 0-2.475.981-3.321 1.926l-.828-.882c1.089-.999 3.222-2.79 3.924-3.429-.477.009-1.476.081-1.908.099-.225.018-.513.054-.702.081z"/>
  </g>
</svg>
